<svg xmlns="http://www.w3.org/2000/svg" xmlns:xlink="http://www.w3.org/1999/xlink" width="500" zoomAndPan="magnify" viewBox="0 0 375 374.999991" height="500" preserveAspectRatio="xMidYMid meet" version="1.0"><defs><g/><clipPath id="a108a7b709"><path d="M 226.9375 222.078125 L 240.007812 222.078125 L 240.007812 235.148438 L 226.9375 235.148438 Z M 226.9375 222.078125 " clip-rule="nonzero"/></clipPath></defs><rect x="-37.5" width="450" fill="#ffffff" y="-37.499999" height="449.999989" fill-opacity="1"/><rect x="-37.5" width="450" fill="#292929" y="-37.499999" height="449.999989" fill-opacity="1"/><g fill="#e4e2dd" fill-opacity="1"><g transform="translate(29.746527, 234.717203)"><g><path d="M 3.890625 0 L 94.84375 0 L 94.578125 -94.453125 L 49.109375 -60.03125 L 3.640625 -94.453125 Z M 3.890625 0 "/></g></g></g><g fill="#e4e2dd" fill-opacity="1"><g transform="translate(124.324548, 234.717203)"><g><path d="M 0.265625 -91.078125 L 25.71875 -45.609375 L 0.265625 -0.125 L 96.65625 -0.125 L 71.203125 -45.609375 L 96.65625 -91.078125 Z M 0.265625 -91.078125 "/></g></g></g><g fill="#e4e2dd" fill-opacity="1"><g transform="translate(226.936353, 198.218288)"><g><path d="M 10.65625 0.375 C 11.578125 0.375 12.359375 -0.125 12.90625 -0.875 L 12.125 -1.796875 C 11.828125 -1.265625 11.390625 -0.9375 10.953125 -0.9375 C 10.546875 -0.9375 10.28125 -1.25 10.171875 -1.703125 L 9.515625 -4.078125 C 9.296875 -4.859375 8.84375 -5.5 8.140625 -5.859375 L 8.140625 -5.875 C 10.34375 -6.171875 11.703125 -7.578125 11.703125 -9.40625 C 11.703125 -11.609375 9.765625 -13.1875 7.03125 -13.1875 L 1.125 -13.1875 L 1.125 0 L 2.671875 0 L 2.671875 -5.578125 L 6 -5.578125 C 6.90625 -5.578125 7.671875 -4.90625 7.953125 -3.921875 L 8.75 -1.15625 C 9.015625 -0.265625 9.609375 0.375 10.65625 0.375 Z M 2.671875 -6.953125 L 2.671875 -11.796875 L 7.03125 -11.796875 C 8.859375 -11.796875 10.15625 -10.796875 10.15625 -9.375 C 10.15625 -7.953125 8.859375 -6.953125 7.03125 -6.953125 Z M 2.671875 -6.953125 "/></g></g></g><g fill="#e4e2dd" fill-opacity="1"><g transform="translate(239.831315, 198.218288)"><g><path d="M 1.125 0 L 10.328125 0 L 10.328125 -1.390625 L 2.640625 -1.390625 L 2.640625 -6.140625 L 9.390625 -6.140625 L 9.390625 -7.484375 L 2.640625 -7.484375 L 2.640625 -11.796875 L 10.140625 -11.796875 L 10.140625 -13.1875 L 1.125 -13.1875 Z M 1.125 0 "/></g></g></g><g fill="#e4e2dd" fill-opacity="1"><g transform="translate(250.614499, 198.218288)"><g><path d="M 1.125 0 L 2.671875 0 L 2.671875 -10.921875 L 2.71875 -10.921875 L 7.375 0 L 9.015625 0 L 13.671875 -10.9375 L 13.703125 -10.9375 L 13.703125 0 L 15.265625 0 L 15.265625 -13.1875 L 13.015625 -13.1875 L 8.203125 -1.703125 L 8.1875 -1.703125 L 3.359375 -13.1875 L 1.125 -13.1875 Z M 1.125 0 "/></g></g></g><g fill="#e4e2dd" fill-opacity="1"><g transform="translate(266.985491, 198.218288)"><g><path d="M 7.75 0.46875 C 12.046875 0.46875 14.84375 -2.34375 14.84375 -6.578125 C 14.84375 -10.84375 12.046875 -13.65625 7.75 -13.65625 C 3.453125 -13.65625 0.65625 -10.84375 0.65625 -6.578125 C 0.65625 -2.34375 3.453125 0.46875 7.75 0.46875 Z M 7.75 -0.921875 C 4.390625 -0.921875 2.203125 -3.171875 2.203125 -6.578125 C 2.203125 -10 4.390625 -12.265625 7.75 -12.265625 C 11.09375 -12.265625 13.28125 -10 13.28125 -6.578125 C 13.28125 -3.171875 11.09375 -0.921875 7.75 -0.921875 Z M 7.75 -0.921875 "/></g></g></g><g fill="#e4e2dd" fill-opacity="1"><g transform="translate(282.478133, 198.218288)"><g><path d="M 4.59375 0 L 6.15625 0 L 6.15625 -11.796875 L 10.5625 -11.796875 L 10.5625 -13.1875 L 0.1875 -13.1875 L 0.1875 -11.796875 L 4.59375 -11.796875 Z M 4.59375 0 "/></g></g></g><g fill="#e4e2dd" fill-opacity="1"><g transform="translate(293.223929, 198.218288)"><g><path d="M 1.125 0 L 10.328125 0 L 10.328125 -1.390625 L 2.640625 -1.390625 L 2.640625 -6.140625 L 9.390625 -6.140625 L 9.390625 -7.484375 L 2.640625 -7.484375 L 2.640625 -11.796875 L 10.140625 -11.796875 L 10.140625 -13.1875 L 1.125 -13.1875 Z M 1.125 0 "/></g></g></g><g fill="#e4e2dd" fill-opacity="1"><g transform="translate(226.936353, 215.868508)"><g><path d="M 6.078125 0.46875 C 9.046875 0.46875 10.984375 -1.296875 10.984375 -3.703125 C 10.984375 -5.5 9.703125 -6.703125 7.15625 -7.25 L 5.03125 -7.75 C 3.359375 -8.125 2.65625 -8.75 2.65625 -9.875 C 2.65625 -11.234375 3.796875 -12.265625 5.59375 -12.265625 C 7.28125 -12.265625 8.53125 -11.171875 8.71875 -9.5625 L 10.1875 -9.9375 C 9.8125 -12.140625 7.984375 -13.65625 5.578125 -13.65625 C 2.875 -13.65625 1.109375 -11.984375 1.109375 -9.609375 C 1.109375 -7.859375 2.203125 -6.796875 4.546875 -6.25 L 6.671875 -5.765625 C 8.609375 -5.3125 9.421875 -4.625 9.421875 -3.453125 C 9.421875 -2.015625 8.15625 -0.921875 6.078125 -0.921875 C 3.78125 -0.921875 2.03125 -2.375 1.90625 -4.4375 L 0.375 -4.15625 C 0.671875 -1.4375 3.03125 0.46875 6.078125 0.46875 Z M 6.078125 0.46875 "/></g></g></g><g fill="#e4e2dd" fill-opacity="1"><g transform="translate(238.280184, 215.868508)"><g><path d="M 7.75 0.46875 C 12.046875 0.46875 14.84375 -2.34375 14.84375 -6.578125 C 14.84375 -10.84375 12.046875 -13.65625 7.75 -13.65625 C 3.453125 -13.65625 0.65625 -10.84375 0.65625 -6.578125 C 0.65625 -2.34375 3.453125 0.46875 7.75 0.46875 Z M 7.75 -0.921875 C 4.390625 -0.921875 2.203125 -3.171875 2.203125 -6.578125 C 2.203125 -10 4.390625 -12.265625 7.75 -12.265625 C 11.09375 -12.265625 13.28125 -10 13.28125 -6.578125 C 13.28125 -3.171875 11.09375 -0.921875 7.75 -0.921875 Z M 7.75 -0.921875 "/></g></g></g><g fill="#e4e2dd" fill-opacity="1"><g transform="translate(253.772826, 215.868508)"><g><path d="M 1.125 0 L 9.421875 0 L 9.421875 -1.390625 L 2.671875 -1.390625 L 2.671875 -13.1875 L 1.125 -13.1875 Z M 1.125 0 "/></g></g></g><g fill="#e4e2dd" fill-opacity="1"><g transform="translate(263.378634, 215.868508)"><g><path d="M 6.28125 0.46875 C 9.4375 0.46875 11.640625 -1.734375 11.640625 -4.9375 L 11.640625 -13.1875 L 10.0625 -13.1875 L 10.0625 -4.9375 C 10.0625 -2.5625 8.578125 -0.921875 6.28125 -0.921875 C 3.96875 -0.921875 2.484375 -2.734375 2.484375 -4.9375 L 2.484375 -13.1875 L 0.9375 -13.1875 L 0.9375 -4.9375 C 0.9375 -1.734375 3.109375 0.46875 6.28125 0.46875 Z M 6.28125 0.46875 "/></g></g></g><g fill="#e4e2dd" fill-opacity="1"><g transform="translate(275.937213, 215.868508)"><g><path d="M 4.59375 0 L 6.15625 0 L 6.15625 -11.796875 L 10.5625 -11.796875 L 10.5625 -13.1875 L 0.1875 -13.1875 L 0.1875 -11.796875 L 4.59375 -11.796875 Z M 4.59375 0 "/></g></g></g><g fill="#e4e2dd" fill-opacity="1"><g transform="translate(286.68301, 215.868508)"><g><path d="M 1.125 0 L 2.671875 0 L 2.671875 -13.1875 L 1.125 -13.1875 Z M 1.125 0 "/></g></g></g><g fill="#e4e2dd" fill-opacity="1"><g transform="translate(290.476744, 215.868508)"><g><path d="M 7.75 0.46875 C 12.046875 0.46875 14.84375 -2.34375 14.84375 -6.578125 C 14.84375 -10.84375 12.046875 -13.65625 7.75 -13.65625 C 3.453125 -13.65625 0.65625 -10.84375 0.65625 -6.578125 C 0.65625 -2.34375 3.453125 0.46875 7.75 0.46875 Z M 7.75 -0.921875 C 4.390625 -0.921875 2.203125 -3.171875 2.203125 -6.578125 C 2.203125 -10 4.390625 -12.265625 7.75 -12.265625 C 11.09375 -12.265625 13.28125 -10 13.28125 -6.578125 C 13.28125 -3.171875 11.09375 -0.921875 7.75 -0.921875 Z M 7.75 -0.921875 "/></g></g></g><g fill="#e4e2dd" fill-opacity="1"><g transform="translate(305.969386, 215.868508)"><g><path d="M 1.125 0 L 2.671875 0 L 2.671875 -11.171875 L 2.71875 -11.171875 L 9.484375 0 L 11.5625 0 L 11.5625 -13.1875 L 9.984375 -13.1875 L 9.984375 -2 L 9.953125 -2 L 3.203125 -13.1875 L 1.125 -13.1875 Z M 1.125 0 "/></g></g></g><g fill="#e4e2dd" fill-opacity="1"><g transform="translate(318.640082, 215.868508)"><g><path d="M 6.078125 0.46875 C 9.046875 0.46875 10.984375 -1.296875 10.984375 -3.703125 C 10.984375 -5.5 9.703125 -6.703125 7.15625 -7.25 L 5.03125 -7.75 C 3.359375 -8.125 2.65625 -8.75 2.65625 -9.875 C 2.65625 -11.234375 3.796875 -12.265625 5.59375 -12.265625 C 7.28125 -12.265625 8.53125 -11.171875 8.71875 -9.5625 L 10.1875 -9.9375 C 9.8125 -12.140625 7.984375 -13.65625 5.578125 -13.65625 C 2.875 -13.65625 1.109375 -11.984375 1.109375 -9.609375 C 1.109375 -7.859375 2.203125 -6.796875 4.546875 -6.25 L 6.671875 -5.765625 C 8.609375 -5.3125 9.421875 -4.625 9.421875 -3.453125 C 9.421875 -2.015625 8.15625 -0.921875 6.078125 -0.921875 C 3.78125 -0.921875 2.03125 -2.375 1.90625 -4.4375 L 0.375 -4.15625 C 0.671875 -1.4375 3.03125 0.46875 6.078125 0.46875 Z M 6.078125 0.46875 "/></g></g></g><g clip-path="url(#a108a7b709)"><path fill="#fffaf3" d="M 226.9375 222.078125 L 240.007812 222.078125 L 240.007812 235.148438 L 226.9375 235.148438 Z M 226.9375 222.078125 " fill-opacity="1" fill-rule="nonzero"/></g><g fill="#e4e2dd" fill-opacity="1"><g transform="translate(245.266234, 235.259132)"><g><path d="M 7.65625 0.46875 C 11.09375 0.46875 13.59375 -1.609375 14.109375 -4.859375 L 12.609375 -5.234375 C 12.21875 -2.59375 10.28125 -0.921875 7.65625 -0.921875 C 4.34375 -0.921875 2.21875 -3.125 2.203125 -6.578125 C 2.203125 -10.0625 4.15625 -12.265625 7.234375 -12.265625 C 9.40625 -12.265625 11.046875 -10.890625 11.453125 -8.671875 L 12.921875 -9.03125 C 12.328125 -11.859375 10.09375 -13.65625 7.234375 -13.65625 C 3.203125 -13.65625 0.65625 -10.90625 0.65625 -6.578125 C 0.65625 -2.28125 3.359375 0.46875 7.65625 0.46875 Z M 7.65625 0.46875 "/></g></g></g><g fill="#e4e2dd" fill-opacity="1"><g transform="translate(259.73102, 235.259132)"><g><path d="M 7.75 0.46875 C 12.046875 0.46875 14.84375 -2.34375 14.84375 -6.578125 C 14.84375 -10.84375 12.046875 -13.65625 7.75 -13.65625 C 3.453125 -13.65625 0.65625 -10.84375 0.65625 -6.578125 C 0.65625 -2.34375 3.453125 0.46875 7.75 0.46875 Z M 7.75 -0.921875 C 4.390625 -0.921875 2.203125 -3.171875 2.203125 -6.578125 C 2.203125 -10 4.390625 -12.265625 7.75 -12.265625 C 11.09375 -12.265625 13.28125 -10 13.28125 -6.578125 C 13.28125 -3.171875 11.09375 -0.921875 7.75 -0.921875 Z M 7.75 -0.921875 "/></g></g></g><g fill="#e4e2dd" fill-opacity="1"><g transform="translate(275.223662, 235.259132)"><g><path d="M 1.125 0 L 2.671875 0 L 2.671875 -10.921875 L 2.71875 -10.921875 L 7.375 0 L 9.015625 0 L 13.671875 -10.9375 L 13.703125 -10.9375 L 13.703125 0 L 15.265625 0 L 15.265625 -13.1875 L 13.015625 -13.1875 L 8.203125 -1.703125 L 8.1875 -1.703125 L 3.359375 -13.1875 L 1.125 -13.1875 Z M 1.125 0 "/></g></g></g></svg>